<?xml version="1.0" encoding="UTF-8"?>
<svg version="1.1" viewBox="0 0 283.52 357.4" xml:space="preserve" xmlns="http://www.w3.org/2000/svg">
  <path d="m184.31 5.2c-3.5 9.8-9.2 21.6-13.4 27.9-6.8 10.4-13.8 16.7-27.2 24.6-6.6 3.9-14.6 8.9-17.7 11-3.2 2.1-5.6 3.3-5.4 2.6 0.3-0.7 1.6-5 3.1-9.6s2.5-8.5 2.3-8.7c-0.9-0.9-30.8 7.5-38.7 10.9-37.5 15.9-66 46.4-78.5 83.9-8.7 26.5-9.7 60.8-2.6 94.6 1.1 5.2 2 11.7 2 14.5 0 7.1 2.6 23.7 5.1 32.6 2.9 10.2 12.1 29 16.2 33.1 5.3 5.3 11.1 9.7 17.9 13.3 3.5 1.9 9.2 5 12.8 6.9 17.3 9.3 31.9 13.2 50 13.1 23.4 0 46-6.5 94.5-27.1 17.7-7.6 18.1-7.8 25.3-15.1 20.2-20.4 35.4-44.5 43.6-69.3 5.7-17 7.7-28.4 8.3-47.4 0.9-28.3-3.5-50.4-15.9-80.2l-6.3-15.2-9.8 9.6c-5.3 5.3-10 9.4-10.2 9.1-0.3-0.3-0.1-3.6 0.5-7.4 1.4-9.9 1.2-23.5-0.5-33.9-4.5-27.6-17.7-48.6-44-70-5.1-4.1-9.4-7.5-9.6-7.5-0.3 0-1.1 1.7-1.8 3.7zm12.5 15.9c14.1 12.3 27.5 33.6 32.4 51.4 3 10.6 3.7 27.1 1.7 38.5-1.7 9.5-5.7 22.5-8.8 28.7-1.1 2.1-1.5 3.8-0.9 3.8 1.8 0 13.1-6 19.5-10.3 3.3-2.3 8.1-6.3 10.7-8.9s5-4.8 5.3-4.8c1.3 0 7.6 15.3 10 24.2 3.5 13.2 4.6 22.2 4.6 38.8 0 36.2-9.2 68.2-27.8 97-8.9 13.7-24.7 31.5-30.8 34.7-2.3 1.2-1.3-0.2 4-5.9 3.9-4.1 8.5-10 10.3-13.1 3.8-6.4 11.5-23.7 10.9-24.4-0.3-0.2-4.4 1.7-9.1 4.2-4.7 2.6-8.6 4.4-8.6 4.1s1.1-3.5 2.5-7.2c1.4-3.6 4.3-12.5 6.5-19.7 2.2-7.3 4.3-14 4.6-15 0.3-1.1-4 1.9-9.8 6.7l-10.3 8.6-0.6-8.8c-0.8-11.6-2.4-17.2-6.9-24.1-5.8-8.9-19.6-18-33-21.7l-6.1-1.8 6.5-6.3c12.1-11.7 21.1-28 24-43.3 0.5-2.8 0.2-2.4-1.7 2-9.1 21.1-18.8 33.3-34.6 43.5-15.9 10.3-30.4 14.4-53.3 15.2-18.4 0.7-29.4-0.9-45.2-6.4-9.2-3.2-23.3-9.7-30.5-14.1l-3.1-1.9 10.4-9.2c16-14.3 33-34.8 49.8-60.1 8.1-12.1 20.9-25.3 31.3-32.1 3.9-2.6 13.8-8.4 22-12.9 8.3-4.6 17.5-10 20.6-12.1 12.6-8.5 20.1-20.2 24.9-38.7 0.6-2.3 1.3-4.2 1.7-4.2 0.3 0 3.4 2.5 6.9 5.6zm-84.6 45.9c0 0.3-1 2.5-2.2 4.8s-4.4 9.9-7.2 16.9l-5.1 12.7-14.6 16.8c-29.7 34-39.2 43.6-59.1 59.5-4.8 3.9-8.5 7.5-8.2 8 0.9 1.4 18 12.5 20.5 13.3 1.8 0.6 1.3 1.4-4.5 7.6-9.5 10-16.5 25.2-16.6 35.9-0.1 5.9-1.7 1.4-3.4-9.5-4.2-27.1-2.6-54 4.5-76.5 10.7-33.7 36.9-65.3 66.4-80.3 11.8-5.9 29.5-11.5 29.5-9.2zm63.9 134.5c9.8 5.1 20.2 13.7 23.5 19.2 4.5 7.8 5.9 15 5.3 26.8-0.3 5.8-1.3 13.1-2.2 16.4-0.9 3.2-1.4 6-1.1 6.3 0.2 0.3 3.7-1.6 7.6-4.1s7.3-4.6 7.5-4.6c0.3 0-2.1 7.2-5.1 16.1-3.1 8.8-5.4 16.2-5.2 16.4s4.5-1.6 9.6-4c5-2.4 9.2-3.9 9.2-3.4 0 3.8-12 22.7-18.2 28.7-6.1 5.8-49.4 22.4-72.5 27.8-9.8 2.3-14 2.8-24.8 2.7-19-0.1-32-4-51.9-15.7-15.1-8.9-24.4-20.5-31.4-38.9-7.7-20.7-9-39.1-3.7-55.7 3.1-9.7 8.9-21.1 14.6-28.7l3.9-5.2 6.5 2.9c37.1 16.6 80.3 15.5 110.5-3 3.6-2.1 7.3-3.9 8.3-4 1.1 0 5.4 1.8 9.6 4z" stroke="#000" stroke-width="3" />
  <path d="m145.31 227.1c-11.5 3.1-21.2 10.8-26.4 21.1-2.4 4.7-4.5 12.3-3.4 12.3 0.3 0 1.9-2.2 3.7-4.9 7.9-12.4 22.8-22.8 38.5-26.7 6.3-1.7 6.7-1.9 4-2.5-4.9-1.1-10.7-0.9-16.4 0.7z" stroke="#000" stroke-width="2" />
  <path d="m51.807 227.3c0.5 0.5 3.6 1.9 6.9 3.2 14 5.4 23.1 12.6 31.4 25l4.4 6.5-0.6-4.7c-1.8-13.6-13.6-26.1-27.6-29.4-6.3-1.5-16-1.9-14.5-0.6z" stroke="#000" stroke-width="2" />
  <path d="m53.207 245.1c-4.1 1.5-10.5 6.2-9.6 7.2 0.2 0.2 1.7-0.3 3.3-1.1 1.5-0.8 4.3-1.8 6.1-2.2l3.4-0.7-2.7 4.1c-3.9 5.8-4.3 11.4-1.2 17.3l2.5 4.6-2.1 0.7c-1.5 0.4 1.6 1.4 9.7 3 11.5 2.4 14.7 2.5 11.6 0.5-1.2-0.8-0.9-1.5 1.8-3.6 4.2-3.3 6.3-7.5 6.4-12.7v-4.1l3.9 4.2c4.5 4.8 4.9 4.1 1.5-2.7-3.1-6-11.1-13.3-16.4-14.9s-12.7-1.4-18.2 0.4zm8.4 18c0.9 0.8 1.6 2.2 1.6 2.9s-0.7 2.1-1.6 2.9c-0.8 0.9-2.2 1.6-2.9 1.6s-2.1-0.7-2.9-1.6c-0.9-0.8-1.6-2.2-1.6-2.9s0.7-2.1 1.6-2.9c0.8-0.9 2.2-1.6 2.9-1.6s2.1 0.7 2.9 1.6z" stroke="#000" stroke-width="2" />
  <path d="m140.81 245.2c-5.9 2-15 10.2-18.5 16.4l-2.5 4.4 5.6-4.8c3.1-2.6 5.8-4.7 6-4.7s0.2 1.8 0 3.9c-0.2 2.2 0.1 5.6 0.8 7.5 1.2 3.8 7.1 9.6 9.7 9.6 1.3 0 1.4 0.3 0.5 1.2-0.7 0.7-1.2 1.5-1.2 1.8 0 0.4 5.4-0.2 12-1.4 6.6-1.1 12-2.3 12-2.8 0-0.4-1.6-1-3.5-1.4l-3.4-0.6 2.1-2.8c3.1-4.3 3.5-11.7 0.9-16.8-1.1-2.2-2.9-4.6-3.8-5.2-2.6-1.6 8-0.3 12.5 1.6 3.5 1.4 3.5 1.4 1.7-0.6-5.4-6-21.1-8.7-30.9-5.3zm4.2 21.7c0.5 2.3-1.6 4.6-4.2 4.6-4.6 0-6.2-4.8-2.4-7.4 1.9-1.3 2.5-1.4 4.3-0.2 1.1 0.7 2.1 2.1 2.3 3z" stroke="#000" stroke-width="2" />
  <path d="m164.21 298.4-4.5 0.7 8.8 2.8-3.9 3.4c-7.8 6.8-18.5 12.6-29.6 16-8.6 2.7-25.3 4.6-34.8 3.9l-7.5-0.5 5 1.6c3.3 1 9.7 1.5 19 1.6 12.1 0.1 15-0.2 21.5-2.2 10.4-3.3 21.6-9.3 28.3-15.3l5.7-5 1.7 3.5c0.9 2 2.1 3.6 2.6 3.6 1.2 0 0.4-11.7-0.9-12.9-1.4-1.4-6.4-1.9-11.4-1.2z" stroke="#000" stroke-width="2" />
</svg>
